<?xml version="1.0" encoding="UTF-8"?> <svg xmlns="http://www.w3.org/2000/svg" width="8.469" height="8.341" viewBox="0 0 8.469 8.341"><defs><style>.a{fill:#ed1c24;}</style></defs><path class="a" d="M888.286,119.787a2.9,2.9,0,0,0-.327-.04v.005a1.55,1.55,0,0,1-.248,0,.307.307,0,0,1-.259-.4c.023-.1.064-.2.1-.293a2.346,2.346,0,0,0,.112-.342c.047-.274-.014-.365-.23-.434s-.263-.182-.194-.408a1.224,1.224,0,0,0,.061-.318.377.377,0,0,0-.225-.353c-.152-.048-.253.038-.341.152-.021.027-.04.055-.06.083-.068.1-.13.2-.2.293a1.111,1.111,0,0,1-.2.2c-.085.062-.21.053-.243-.007a.177.177,0,0,1,.052-.217c.12-.126.248-.245.375-.364s.249-.212.359-.332a1.054,1.054,0,0,0,.16-1.169.471.471,0,0,0-.409-.3.412.412,0,0,0-.414.285,4.876,4.876,0,0,0-.159.506,4.528,4.528,0,0,1-.141.459.8.8,0,0,1-.189.257c-.1.093-.168.066-.207-.065-.021-.071-.032-.146-.048-.219a.566.566,0,0,0-.2-.329c-.083-.067-.127-.062-.192.025a2.079,2.079,0,0,0-.158.24c-.091.165-.151.171-.266.017-.027-.036-.052-.074-.079-.111a.833.833,0,0,0-.322-.265c-.259-.126-.385-.019-.369.241a.682.682,0,0,1-.042.27.138.138,0,0,1-.25.05,1.3,1.3,0,0,1-.133-.2c-.067-.106-.123-.219-.2-.318a.276.276,0,0,0-.513.1,1.187,1.187,0,0,0-.026.373c0,.108.037.215.048.324.014.138,0,.153-.117.214-.069.036-.138.071-.2.112a.193.193,0,0,0-.093.185c0,.211-.133.3-.318.211a1.107,1.107,0,0,1-.232-.164,1.1,1.1,0,0,0-.434-.244.488.488,0,0,0-.53.193.381.381,0,0,0,.066.524.84.84,0,0,0,.252.123c.1.033.208.038.306.074a1.228,1.228,0,0,1,.31.154.208.208,0,0,1,.061.29c-.034.079-.077.154-.107.234a.384.384,0,0,0,.126.489c.052.043.11.079.158.126s.151.126.114.228-.13.065-.2.079a1.652,1.652,0,0,0-.353.08.362.362,0,0,0-.193.459.179.179,0,0,0,.183.144c.082,0,.165-.022.247-.022a.912.912,0,0,1,.276.025c.139.045.155.115.085.249a2.14,2.14,0,0,0-.141.291c-.053.156.028.267.186.254a1.1,1.1,0,0,1,.28.01c.094.016.116.087.058.165a1.039,1.039,0,0,1-.154.155c-.145.125-.3.242-.437.371a1.093,1.093,0,0,0-.328.49.447.447,0,0,0,.319.612.633.633,0,0,0,.761-.266,2.719,2.719,0,0,0,.153-.266c.06-.117.1-.245.173-.353a1.588,1.588,0,0,1,.275-.34c.188-.164.388-.1.493.137.037.083.079.165.122.245a.331.331,0,0,0,.451.162c.051-.021.1-.045.154-.062.174-.056.258-.014.324.16.026.07.047.142.077.209a.289.289,0,0,0,.268.2.476.476,0,0,1,.39.22,1.285,1.285,0,0,0,.307.282.263.263,0,0,0,.369-.078.33.33,0,0,0,.054-.355,3.145,3.145,0,0,0-.186-.345,2.678,2.678,0,0,1-.17-.295.211.211,0,0,1,.221-.312c.077,0,.153.025.23.03.272.018.457-.1.468-.38,0-.069.005-.138.011-.207a.247.247,0,0,1,.25-.262,1.357,1.357,0,0,0,.164-.018A.3.3,0,0,0,887.5,121c0-.023-.007-.046-.01-.068-.016-.14.02-.182.154-.16.092.015.183.044.274.064a.673.673,0,0,0,.468-.055.532.532,0,0,0,.271-.547A.49.49,0,0,0,888.286,119.787Z" transform="translate(-880.42 -115.475)"></path><path class="a" d="M959.805,166.826a.106.106,0,0,0,.1-.009.313.313,0,0,0,.124-.245c0-.113-.036-.177-.1-.2a.179.179,0,0,0-.2.1A.3.3,0,0,0,959.805,166.826Z" transform="translate(-958.039 -165.601)"></path><path class="a" d="M861.052,307.428a.136.136,0,0,0-.093.013.248.248,0,0,0-.1.1c-.019.055.027.1.076.114.09.03.184.052.277.073a.164.164,0,0,0,.183-.082A.571.571,0,0,0,861.052,307.428Z" transform="translate(-860.86 -303.965)"></path><path class="a" d="M1015.919,556.218a.3.3,0,0,0,.049.259c.022.029.069.066.094.059a.137.137,0,0,0,.087-.087.743.743,0,0,0-.021-.368C1015.986,556.08,1015.944,556.108,1015.919,556.218Z" transform="translate(-1013.312 -548.196)"></path><path class="a" d="M1256.241,514.342c-.068.138-.062.208.04.283a.783.783,0,0,0,.208.1.1.1,0,0,0,.1-.025.111.111,0,0,0-.012-.1A.534.534,0,0,0,1256.241,514.342Z" transform="translate(-1249.549 -507.041)"></path><path class="a" d="M1135,111.889a.051.051,0,0,0,.036-.033.914.914,0,0,0,.007-.417c-.011-.029-.046-.072-.067-.07a.129.129,0,0,0-.091.061.673.673,0,0,0-.036.157c-.03.12.09.183.107.283C1134.96,111.879,1134.989,111.892,1135,111.889Z" transform="translate(-1130.259 -111.369)"></path><path class="a" d="M1351.382,309.15c-.064-.008-.1.042-.115.141a.153.153,0,0,0,.114.166c.07.011.133-.06.138-.156A.169.169,0,0,0,1351.382,309.15Z" transform="translate(-1343.049 -305.659)"></path><path class="a" d="M1284.033,151.246c.062,0,.1-.044.1-.117,0-.1-.024-.141-.086-.14a.149.149,0,0,0-.13.147A.111.111,0,0,0,1284.033,151.246Z" transform="translate(-1276.646 -150.434)"></path><path class="a" d="M875.287,446.63a.13.13,0,0,0-.117.129.1.1,0,0,0,.107.1.13.13,0,0,0,.126-.12A.119.119,0,0,0,875.287,446.63Z" transform="translate(-874.97 -440.729)"></path></svg> 