<?xml version="1.0" encoding="UTF-8"?> <!-- Generator: Adobe Illustrator 24.1.3, SVG Export Plug-In . SVG Version: 6.00 Build 0) --> <svg xmlns="http://www.w3.org/2000/svg" xmlns:xlink="http://www.w3.org/1999/xlink" version="1.1" id="Layer_1" x="0px" y="0px" viewBox="0 0 242.7 86" style="enable-background:new 0 0 242.7 86;" xml:space="preserve"> <style type="text/css"> .st0{fill:#272626;} </style> <g> <g> <g> <g> <path class="st0" d="M130.8,78h-2.1v-2.6c-0.7,0.8-2.7,3-6.3,3c-3.6,0-6.2-2.4-6.2-5.6s2.4-5.4,7.4-5.6l5.1-0.2v-1 c0-3.4-2.3-5.1-5.2-5.1c-2.9,0-5.1,1.3-5.5,1.6l-0.8-1.5c1.2-0.8,3.4-1.9,6.2-1.9c2.8,0,4.5,0.9,5.6,2.1 c1.1,1.2,1.8,2.6,1.8,5.8V78z M128.7,68.6l-5.3,0.3c-3.9,0.2-5.1,1.9-5.1,3.9s1.5,3.8,4.5,3.8s5-2,5.9-3.4V68.6z"></path> <path class="st0" d="M153.3,74c0,4.2-0.5,6.4-1.5,8s-3.2,4-8,4s-7.8-2.8-7.8-2.8l1.2-1.6c1,1,3.8,2.5,6.8,2.5s4.8-1.3,5.6-2.4 s1.6-3.1,1.6-6.3V74c-1.4,2.4-3.7,4-7,4c-4.9,0-9.1-3.6-9.1-9.5c0-5.8,4.2-9.5,9.1-9.5c3.3,0,5.8,1.6,7,3.8v-3.5h2.1L153.3,74 L153.3,74z M144.2,60.9c-4.6,0-7,3.4-7,7.6s2.4,7.6,7,7.6s7-3.4,7-7.6C151.3,64.3,148.9,60.9,144.2,60.9z"></path> <path class="st0" d="M175.2,69.2h-15.1c0.2,4.4,2.7,7.3,6.9,7.3s6.5-2.4,6.5-2.4l1,1.5c0,0-2.3,2.8-7.7,2.8s-8.9-4-8.9-9.7 s4.1-9.6,9-9.6s8.4,3.7,8.4,8.7C175.3,68.4,175.2,69.2,175.2,69.2z M173.2,67.4c0-2.4-1.8-6.5-6.4-6.5c-4.6,0-6.5,3.9-6.6,6.5 H173.2z"></path> <path class="st0" d="M194.4,78h-2.1V67c0-3-0.5-6.1-4.5-6.1s-5.9,3.5-5.9,7.9V78h-2.1V59.4h2.1v3.4c0.9-2.2,3.3-3.8,6-3.8 c5.3,0,6.6,3.4,6.6,7.8V78H194.4z"></path> <path class="st0" d="M215.5,75.2c-0.7,0.8-2.6,3.2-7.6,3.2s-9.1-4-9.1-9.7s4.4-9.6,9.3-9.6c4.9,0,6.9,2.7,7.3,3.2l-1.3,1.4 c-0.8-0.9-2.4-2.7-6.1-2.7c-3.7,0-7,3-7,7.6s2.9,7.9,7.1,7.9c4.2,0,6.2-2.7,6.2-2.7L215.5,75.2z"></path> <path class="st0" d="M233.5,59.4l-9.4,22.9c-1.3,3.1-2.9,3.5-4.2,3.5s-2.2-0.5-2.2-0.5l0.4-2c0,0,0.7,0.4,1.8,0.4 s1.9-0.4,2.8-2.9l1.1-3.1l-7.5-18.3h2.2l6.4,16.2l6.4-16.2C231.3,59.4,233.5,59.4,233.5,59.4z"></path> </g> </g> </g> <path class="st0" d="M26.2,46.1V10.4h10.9c2.7,0,4.9,0.4,6.7,1.1c1.2,0.5,2.3,1.2,3.2,2.1c0.9,0.9,1.7,2,2.2,3 c0.8,1.5,1.2,3.2,1.2,4.9c0,1.6-0.3,3.1-0.9,4.5c-0.6,1.4-1.3,2.6-2.2,3.5s-1.9,1.6-2.9,2.1c-1,0.5-2.3,0.9-3.7,1.2L50.4,46h-8 L33,32.3h-0.1V46L26.2,46.1L26.2,46.1z M32.8,16.6v10.9H37c1.3,0,2.5-0.3,3.6-0.8c0.8-0.4,1.5-1,2-1.8s0.8-1.8,0.8-2.8 s-0.3-2-0.8-2.9s-1.2-1.5-2.1-2c-0.9-0.4-2-0.6-3.5-0.6C37,16.6,32.8,16.6,32.8,16.6z"></path> <path class="st0" d="M80.7,35.6H59.9c0.6,1.8,1.6,3.2,2.9,4.1c1.3,0.9,2.8,1.4,4.6,1.4c1.4,0,2.6-0.3,3.6-0.9 c1-0.6,1.8-1.4,2.4-2.6h6.8c-0.4,1.2-0.9,2.2-1.5,3.1c-0.8,1.2-1.8,2.3-3,3.3s-2.4,1.7-3.8,2.2s-3,0.8-4.8,0.8 c-4.5,0-8.1-1.7-10.8-5c-2.1-2.6-3.2-5.7-3.2-9.3c0-2.6,0.6-5.1,1.9-7.3c1.2-2.3,3-4,5.2-5.2s4.6-1.8,7.2-1.8c2.5,0,4.8,0.6,7,1.8 c2.1,1.2,3.8,2.9,4.9,5c1.2,2.2,1.8,4.5,1.8,6.9C81.1,33.2,81,34.4,80.7,35.6z M74.5,30.4c-0.4-2-1.2-3.6-2.5-4.6 c-1.3-1.1-2.9-1.6-4.8-1.6c-1.4,0-2.6,0.3-3.7,0.9c-1.1,0.6-1.9,1.5-2.6,2.6c-0.5,0.7-0.8,1.6-1.1,2.8L74.5,30.4L74.5,30.4z"></path> <path class="st0" d="M112.3,10.4v35.7h-5.9v-3.3h-0.1c-0.9,1.3-2.1,2.3-3.5,3c-1.5,0.7-3.2,1.1-5.1,1.1c-3.7,0-6.9-1.4-9.6-4.1 c-2.7-2.8-4-6.1-4-10.1c0-2.2,0.4-4.2,1.2-5.9c0.8-1.7,1.8-3.1,2.9-4.3c1.2-1.1,2.4-2,3.8-2.7c1.9-0.9,3.9-1.3,6-1.3 c1.7,0,3.2,0.3,4.4,0.8c1.2,0.6,2.4,1.4,3.4,2.4V10.4H112.3z M90.6,32.5c0,1.5,0.3,3,1,4.3s1.7,2.4,2.9,3.1 c1.3,0.8,2.6,1.1,3.9,1.1c1.4,0,2.7-0.4,3.9-1.1c1.2-0.7,2.2-1.8,2.9-3.1c0.7-1.4,1.1-2.8,1.1-4.2c0-1.4-0.4-2.8-1.1-4.2 c-0.7-1.3-1.7-2.4-2.9-3.1c-1.2-0.7-2.5-1.1-3.9-1.1s-2.7,0.4-3.9,1.1c-1.2,0.8-2.2,1.8-2.9,3.1C91,29.9,90.6,31.2,90.6,32.5z"></path> <path class="st0" d="M117.4,46.1V10.4h9.2l9.5,27h0.1l9.4-27h9.2v35.7h-6.6V19.3H148l-9.1,26.8h-5.6l-9.2-26.8H124v26.8H117.4z"></path> <path class="st0" d="M187.3,19.3v26.8h-5.9v-3.3c-1.2,1.3-2.6,2.3-4.1,3.1c-1.5,0.7-3.3,1.1-5.3,1.1c-2.4,0-4.6-0.6-6.5-1.7 c-1.9-1.2-3.5-2.8-4.7-5s-1.8-4.7-1.8-7.5c0-2.7,0.6-5.2,1.8-7.4s2.8-3.9,4.9-5.1c2.1-1.2,4.3-1.8,6.6-1.8c1.6,0,2.9,0.2,4.1,0.7 c1.2,0.5,2.2,1.1,3.1,1.8c0.9,0.7,1.4,1.3,1.8,1.8h0.1v-3.4L187.3,19.3L187.3,19.3z M181.2,32.6c0-2.5-0.8-4.5-2.2-6.1 c-1.5-1.5-3.4-2.3-5.6-2.3c-1.4,0-2.8,0.4-4,1.1s-2.2,1.8-2.9,3.2c-0.7,1.4-1,2.8-1,4.3c0,2.3,0.8,4.3,2.3,5.9 c1.5,1.6,3.4,2.4,5.6,2.4c2.3,0,4.2-0.8,5.7-2.4C180.5,37,181.2,35,181.2,32.6z"></path> <path class="st0" d="M192.6,46.1V19.3h5.9v2.4h0.1c0.9-1.3,1.7-2.1,2.6-2.6c0.8-0.5,1.9-0.7,3.2-0.7h0.5v6.2 c-1.3,0.1-2.4,0.4-3.3,0.8c-0.8,0.5-1.5,1.2-1.9,2c-0.4,0.9-0.6,2.1-0.6,3.5v15h-6.5V46.1z"></path> <path class="st0" d="M209.8,46.1V10.4h6.4v21.5h0.1l8.5-12.6h7.4l-9.6,13.1l10.9,13.7h-8.1l-9.1-12.5h-0.1v12.5 C216.2,46.1,209.8,46.1,209.8,46.1z"></path> <rect y="0" class="st0" width="6.9" height="55.1"></rect> <rect x="237" y="40.4" class="st0" width="5.7" height="5.7"></rect> </g> </svg> 