<?xml version="1.0" encoding="UTF-8"?> <svg xmlns="http://www.w3.org/2000/svg" width="225.647" height="80" viewBox="0 0 225.647 80"><defs><style>.a{fill:#fff;}.b{fill:#ed1c24;}</style></defs><g transform="translate(766.634 -1052.692)"><g transform="translate(-658.628 1107.639)"><path class="a" d="M-636.857,1129.389h-1.976v-2.423a7.523,7.523,0,0,1-5.853,2.8c-3.356,0-5.779-2.236-5.779-5.219s2.237-5.033,6.9-5.219l4.735-.186v-.933c0-3.168-2.125-4.734-4.847-4.734a9.4,9.4,0,0,0-5.108,1.491l-.745-1.417a10.583,10.583,0,0,1,5.778-1.753,6.659,6.659,0,0,1,5.22,1.938c1.007,1.12,1.677,2.424,1.677,5.406Zm-1.976-8.761-4.921.3c-3.617.187-4.772,1.754-4.772,3.617s1.417,3.542,4.214,3.542a6.614,6.614,0,0,0,5.48-3.17Z" transform="translate(650.465 -1111.792)"></path><path class="a" d="M-614.653,1125.661c0,3.915-.485,5.965-1.418,7.457s-2.982,3.727-7.455,3.727a11.353,11.353,0,0,1-7.271-2.609l1.118-1.491a10.057,10.057,0,0,0,6.338,2.349,6.31,6.31,0,0,0,5.219-2.238,10.065,10.065,0,0,0,1.491-5.89V1125.7a7.1,7.1,0,0,1-6.525,3.691,8.377,8.377,0,0,1-8.462-8.8,8.379,8.379,0,0,1,8.462-8.8,7.243,7.243,0,0,1,6.525,3.579v-3.281h1.977Zm-8.389-12.153c-4.288,0-6.525,3.131-6.525,7.046s2.237,7.083,6.525,7.083,6.524-3.168,6.524-7.083S-618.755,1113.507-623.042,1113.507Z" transform="translate(649.141 -1111.792)"></path><path class="a" d="M-592.653,1121.188h-14.056c.187,4.1,2.5,6.822,6.413,6.822a8.829,8.829,0,0,0,6.077-2.236l.932,1.38s-2.162,2.609-7.2,2.609-8.276-3.728-8.276-9.021c0-5.332,3.8-8.949,8.388-8.949a7.711,7.711,0,0,1,7.829,8.09A10.789,10.789,0,0,1-592.653,1121.188Zm-1.864-1.678a6,6,0,0,0-5.965-6.039,6.147,6.147,0,0,0-6.151,6.039Z" transform="translate(647.534 -1111.792)"></path><path class="a" d="M-573.257,1129.389h-1.976v-10.252c0-2.8-.485-5.667-4.214-5.667s-5.518,3.244-5.518,7.345v8.574H-586.9v-17.3h1.938v3.206a6.052,6.052,0,0,1,5.592-3.5c4.959,0,6.115,3.169,6.115,7.271Z" transform="translate(645.999 -1111.792)"></path><path class="a" d="M-552.268,1126.78c-.633.746-2.424,2.982-7.084,2.982s-8.463-3.728-8.463-9.021a8.7,8.7,0,0,1,8.65-8.949c4.585,0,6.45,2.5,6.821,2.983l-1.23,1.3a6.8,6.8,0,0,0-5.666-2.534c-3.468,0-6.525,2.8-6.525,7.084s2.684,7.381,6.6,7.381a7.328,7.328,0,0,0,5.778-2.534Z" transform="translate(644.657 -1111.792)"></path><path class="a" d="M-534.34,1112.113l-8.761,21.325c-1.193,2.871-2.684,3.244-3.877,3.244a5.13,5.13,0,0,1-2.088-.447l.373-1.864a3.813,3.813,0,0,0,1.715.373c1.043,0,1.753-.373,2.573-2.722l1.006-2.87-6.971-17.038h2.05l5.965,15.063,5.965-15.062Z" transform="translate(643.431 -1111.815)"></path></g><path class="b" d="M-740.463,1096.259v-33.178h10.178a16.407,16.407,0,0,1,6.215,1.006,9.065,9.065,0,0,1,2.976,1.981,10.813,10.813,0,0,1,2.08,2.834,9.972,9.972,0,0,1,1.071,4.6,10.572,10.572,0,0,1-.821,4.158,10.045,10.045,0,0,1-2.089,3.228,9.952,9.952,0,0,1-2.714,1.98,16.276,16.276,0,0,1-3.458,1.161l9.016,12.233h-7.442l-8.776-12.694h-.087v12.694Zm6.15-27.422v10.133h3.94a7.863,7.863,0,0,0,3.348-.7,4.311,4.311,0,0,0,1.839-1.708,4.98,4.98,0,0,0,.721-2.648,5.175,5.175,0,0,0-.721-2.67,4.53,4.53,0,0,0-1.926-1.817,7.488,7.488,0,0,0-3.26-.59Z" transform="translate(-1.839 -0.73)"></path><path class="b" d="M-687.879,1087.051h-19.3a7.732,7.732,0,0,0,2.68,3.808,7.172,7.172,0,0,0,4.322,1.291,6.374,6.374,0,0,0,3.326-.8,6.485,6.485,0,0,0,2.255-2.376h6.282a13.684,13.684,0,0,1-1.357,2.846,14.29,14.29,0,0,1-2.79,3.041,12.352,12.352,0,0,1-3.546,2.047,12.9,12.9,0,0,1-4.5.71,12.23,12.23,0,0,1-10-4.638,13.384,13.384,0,0,1-2.956-8.645,13.905,13.905,0,0,1,1.729-6.818,12.171,12.171,0,0,1,4.8-4.859,13.52,13.52,0,0,1,6.708-1.718,13.047,13.047,0,0,1,6.478,1.653,11.587,11.587,0,0,1,4.6,4.661,13.247,13.247,0,0,1,1.642,6.445A15.532,15.532,0,0,1-687.879,1087.051Zm-5.734-4.814a7.2,7.2,0,0,0-2.341-4.322,6.7,6.7,0,0,0-4.444-1.5,6.711,6.711,0,0,0-3.446.864,7.3,7.3,0,0,0-2.462,2.4,9.293,9.293,0,0,0-1.05,2.56Z" transform="translate(-3.736 -1.282)"></path><path class="b" d="M-656.263,1063.081v33.178h-5.471v-3.042h-.087a8.362,8.362,0,0,1-3.273,2.834,10.452,10.452,0,0,1-4.716,1.017,11.986,11.986,0,0,1-8.885-3.841,12.954,12.954,0,0,1-3.742-9.4,13.085,13.085,0,0,1,1.1-5.526,13.326,13.326,0,0,1,2.726-3.983,13.74,13.74,0,0,1,3.523-2.529,12.761,12.761,0,0,1,5.537-1.247,10.033,10.033,0,0,1,4.137.777,10.583,10.583,0,0,1,3.195,2.265v-10.505Zm-20.222,20.527a8.561,8.561,0,0,0,.973,4.016,7.184,7.184,0,0,0,2.736,2.922,7.056,7.056,0,0,0,3.664,1.051,6.938,6.938,0,0,0,3.612-1.018,7.274,7.274,0,0,0,2.714-2.911,8.222,8.222,0,0,0,1.007-3.906,8.059,8.059,0,0,0-1.007-3.862,7.281,7.281,0,0,0-2.725-2.89,6.959,6.959,0,0,0-3.6-1.017,6.923,6.923,0,0,0-3.664,1.061,7.43,7.43,0,0,0-2.726,2.911A7.713,7.713,0,0,0-676.485,1083.609Z" transform="translate(-5.916 -0.73)"></path><path class="a" d="M-649.224,1096.259v-33.178h8.514l8.819,25.1h.11l8.732-25.1h8.514v33.178h-6.15v-24.884h-.131l-8.469,24.884h-5.188l-8.513-24.884h-.087v24.884Z" transform="translate(-8.25 -0.73)"></path><path class="a" d="M-581.32,1071.939v24.884h-5.471v-3.086a12.739,12.739,0,0,1-3.776,2.867,10.96,10.96,0,0,1-4.891,1.027,11.529,11.529,0,0,1-6.04-1.608,12.11,12.11,0,0,1-4.388-4.672,14.164,14.164,0,0,1-1.7-6.98,14.189,14.189,0,0,1,1.654-6.851,11.767,11.767,0,0,1,4.573-4.738,12.078,12.078,0,0,1,6.1-1.674,10.252,10.252,0,0,1,3.851.679,11.457,11.457,0,0,1,2.879,1.63,7.56,7.56,0,0,1,1.652,1.674h.087v-3.152Zm-5.646,12.388a7.728,7.728,0,0,0-2.09-5.626,6.992,6.992,0,0,0-5.22-2.143,7.074,7.074,0,0,0-3.71,1.017,7.058,7.058,0,0,0-2.67,2.933,8.7,8.7,0,0,0-.973,3.994,7.49,7.49,0,0,0,2.156,5.459,7.059,7.059,0,0,0,5.241,2.2,6.677,6.677,0,0,0,5.264-2.275A8.131,8.131,0,0,0-586.966,1084.327Z" transform="translate(-11.177 -1.294)"></path><path class="a" d="M-574.015,1096.823v-24.884h5.471v2.211h.087a7.534,7.534,0,0,1,2.375-2.4,6.094,6.094,0,0,1,2.966-.645h.482v5.778a7.146,7.146,0,0,0-3.064.765,4.164,4.164,0,0,0-1.773,1.9,7.725,7.725,0,0,0-.59,3.283v13.985Z" transform="translate(-13.535 -1.294)"></path><path class="a" d="M-556.807,1096.259v-33.178h5.952v20h.088l7.945-11.709h6.85l-8.951,12.19,10.132,12.694h-7.528l-8.448-11.643h-.088v11.643Z" transform="translate(-14.745 -0.73)"></path><rect class="a" width="6.461" height="51.252" transform="translate(-766.634 1052.693)"></rect><rect class="b" width="5.27" height="5.27" transform="translate(-546.258 1090.259)"></rect></g></svg> 